<svg xmlns="http://www.w3.org/2000/svg" width="128" height="128" viewBox="0 0 128 128">
    <g fill="none" fill-rule="evenodd">
        <path fill-opacity=".1" d="M10 0h108c5.523 0 10 4.477 10 10v108c0 5.523-4.477 10-10 10H10c-5.523 0-10-4.477-10-10V10C0 4.477 4.477 0 10 0z"/>
        <g fill="#FD2D87" fill-rule="nonzero">
            <path d="M44.308 29.622h-2.903a1.405 1.405 0 0 0 0 2.81h2.903a1.405 1.405 0 0 0 0-2.81zM48.11 27.223l-2.809-2.81a1.405 1.405 0 0 0-1.99 0 1.405 1.405 0 0 0 0 1.99l2.81 2.81a1.405 1.405 0 0 0 1.99 0 1.405 1.405 0 0 0 0-1.99zM48.11 32.843a1.405 1.405 0 0 0-1.99 0l-2.81 2.81a1.405 1.405 0 0 0 0 1.99 1.405 1.405 0 0 0 1.991 0l2.81-2.81a1.405 1.405 0 0 0 0-1.99zM87.508 29.142a4.222 4.222 0 0 0-5.652-1.886l-8.337 4.149a5.62 5.62 0 1 0-10.888-2.619l-9.266-4.636a1.405 1.405 0 0 0-2.032 1.257v11.24a1.405 1.405 0 0 0 2.033 1.255l.857-.428c.075.366.197.72.364 1.054l2.81 5.62a4.215 4.215 0 0 0 5.655 1.884l2.33-1.17v2.329l-5.403 16.218a4.217 4.217 0 1 0 8.001 2.667l3.027-9.078 3.025 9.078a4.215 4.215 0 1 0 7.997-2.666L76.62 47.2v-7.945l9.003-4.459a4.215 4.215 0 0 0 1.885-5.654zm-19.317-2.33a2.81 2.81 0 1 1 0 5.62 2.81 2.81 0 0 1 0-5.62zm-4.629 5.992a5.644 5.644 0 0 0 2.838 2.142l-3.347 1.666-.926-1.85a4.191 4.191 0 0 0-.629-.926l2.064-1.032zm-8.35 1.035l-1.07.535V27.68l6.697 3.347-2.847 1.421a4.215 4.215 0 0 0-2.78 1.39zM84.37 32.28l-9.78 4.843a1.405 1.405 0 0 0-.78 1.254v9.05c0 .15.024.3.071.443l5.476 16.427a1.405 1.405 0 0 1-2.666.89l-4.359-13.076a1.405 1.405 0 0 0-2.665 0L65.31 65.188a1.405 1.405 0 0 1-2.666-.89l5.475-16.426c.048-.143.072-.292.072-.443v-4.837a1.405 1.405 0 0 0-2.033-1.257l-4.364 2.181a1.405 1.405 0 0 1-1.885-.629l-2.81-5.62a1.405 1.405 0 1 1 2.514-1.256l1.554 3.105a1.405 1.405 0 0 0 1.882.63l20.06-9.982a1.408 1.408 0 1 1 1.262 2.517z"/>
        </g>
    </g>
</svg>
