<svg xmlns="http://www.w3.org/2000/svg" width="128" height="128" viewBox="0 0 128 128">
    <g fill="none" fill-rule="evenodd">
        <rect width="128" height="128" fill-opacity=".1" rx="10"/>
        <g fill="#FD2D87" fill-rule="nonzero">
            <path d="M79.232 24.15H48.768A8.778 8.778 0 0 0 40 32.92v30.464a8.778 8.778 0 0 0 8.768 8.766h30.464A8.777 8.777 0 0 0 88 63.384V32.92a8.778 8.778 0 0 0-8.768-8.769zm5.73 39.234a5.736 5.736 0 0 1-5.73 5.728H48.768a5.736 5.736 0 0 1-5.73-5.728V32.92a5.736 5.736 0 0 1 5.73-5.73h30.464a5.736 5.736 0 0 1 5.73 5.73v30.465z"/>
            <path d="M74.5 46.967L59.046 34.581a1.519 1.519 0 0 0-2.469 1.185v24.772a1.519 1.519 0 0 0 2.469 1.185l15.452-12.385a1.519 1.519 0 0 0 0-2.37zM59.612 57.374V38.93l11.508 9.22-11.508 9.224z"/>
        </g>
    </g>
</svg>
