<svg xmlns="http://www.w3.org/2000/svg" width="128" height="128" viewBox="0 0 128 128">
    <g fill="none" fill-rule="evenodd">
        <rect width="128" height="128" fill-opacity=".1" rx="10"/>
        <g fill="#FD2D87" fill-rule="nonzero">
            <path d="M53.316 50.354a3.963 3.963 0 1 0 0 7.926 3.963 3.963 0 0 0 0-7.926zm0 4.755a.79.79 0 1 1 0-1.58.79.79 0 0 1 0 1.58zM73.769 50.354a3.963 3.963 0 1 0-.028 7.926 3.963 3.963 0 0 0 .028-7.926zm0 4.755a.79.79 0 1 1 0-1.58.79.79 0 0 1 0 1.58z"/>
            <path d="M85.335 34.662h-1.218v-3.49a6.983 6.983 0 0 0-6.975-6.976H49.937a6.983 6.983 0 0 0-6.975 6.976v3.49H41.58a1.58 1.58 0 0 0-1.58 1.58v5.573c0 .872.707 1.58 1.58 1.58h1.382v13.608c0 2.08.93 4.052 2.536 5.375v2.709a4.125 4.125 0 0 0 4.12 4.134h2.774a4.125 4.125 0 0 0 4.121-4.122v-1.111h14.053v1.11a4.125 4.125 0 0 0 4.121 4.123h2.765a4.125 4.125 0 0 0 4.121-4.122v-2.697-.016a6.965 6.965 0 0 0 2.536-5.375V43.404h1.218a1.58 1.58 0 0 0 1.58-1.58v-5.582a1.58 1.58 0 0 0-1.58-1.58h.008zm-8.193 26.154H49.937a3.81 3.81 0 0 1-3.803-3.805v-8.723h34.813v8.719a3.81 3.81 0 0 1-3.805 3.805v.004zm-31.01-15.688V32.6h34.815v12.528H46.132zm3.803-17.755h27.207c1.422 0 2.726.793 3.38 2.056H46.557a3.807 3.807 0 0 1 3.38-2.062v.006zm3.407 37.718a.964.964 0 0 1-.952.952h-2.765a.964.964 0 0 1-.952-.952V63.87c.419.078.844.118 1.27.119h3.4l-.001 1.103zm25.07 0a.964.964 0 0 1-.952.952h-2.765a.964.964 0 0 1-.952-.952v-1.103h3.407c.426-.001.85-.04 1.27-.119l-.008 1.222z"/>
        </g>
    </g>
</svg>
