<?xml version="1.0" encoding="UTF-8"?>
<svg width="128px" height="128px" viewBox="0 0 128 128" version="1.1" xmlns="http://www.w3.org/2000/svg" xmlns:xlink="http://www.w3.org/1999/xlink">
    <!-- Generator: sketchtool 49 (51002) - http://www.bohemiancoding.com/sketch -->
    <title>ED04E884-29DA-4E01-B526-7148E3871434</title>
    <desc>Created with sketchtool.</desc>
    <defs></defs>
    <g id="Page-1" stroke="none" stroke-width="1" fill="none" fill-rule="evenodd">
        <g id="Main-menu" transform="translate(-44.000000, -483.000000)">
            <g id="btn_traing_plan" transform="translate(44.000000, 483.000000)">
                <g id="006-business" transform="translate(40.000000, 24.000000)" fill="#FD2D87" fill-rule="nonzero">
                    <path d="M41.2358159,2.64301255 C37.5444278,2.64301255 34.5519665,5.63547385 34.5519665,9.32686192 C34.5519665,13.01825 37.5444278,16.0107113 41.2358159,16.0107113 C44.927204,16.0107113 47.9196653,13.01825 47.9196653,9.32686192 C47.9163434,5.63685067 44.9258271,2.64633439 41.2358159,2.64301255 Z M41.2358159,13.2130544 C39.0895311,13.2130544 37.3496234,11.4731468 37.3496234,9.32686192 C37.3496234,7.18057709 39.0895311,5.44066946 41.2358159,5.44066946 C43.3821007,5.44066946 45.1220084,7.18057709 45.1220084,9.32686192 C45.1197944,11.472229 43.381183,13.2108404 41.2358159,13.2130544 Z" id="Shape"></path>
                    <path d="M1.93205021,11.6465272 C2.47991553,12.1889548 3.36242756,12.1889548 3.91029289,11.6465272 L7.54543933,8.01138075 L11.1805858,11.6465272 C11.7396003,12.1035571 12.5539414,12.0627901 13.0645164,11.5522151 C13.5750914,11.0416401 13.6158584,10.2272991 13.1588285,9.66828452 L9.52368201,6.02309623 L13.1588285,2.38794979 C13.6441972,1.83187924 13.6168876,0.995139823 13.0962924,0.471901965 C12.5756972,-0.0513358922 11.7391067,-0.0828817064 11.1805858,0.399665272 L7.54543933,4.03481172 L3.91029289,0.399665272 C3.35127832,-0.057364631 2.53693726,-0.0165976339 2.02636228,0.493977345 C1.5157873,1.00455232 1.47502031,1.81889338 1.93205021,2.37790795 L5.56719665,6.02309623 L1.93205021,9.65824268 C1.38962258,10.206108 1.38962258,11.08862 1.93205021,11.6364854 L1.93205021,11.6465272 Z" id="Shape"></path>
                    <path d="M31.6558996,28.1553138 C31.1080343,27.6128862 30.2255222,27.6128862 29.6776569,28.1553138 L26.0425105,31.7904603 L22.407364,28.1553138 C22.0681558,27.7404124 21.5225657,27.5544529 21.0005744,27.6758223 C20.4785831,27.7971916 20.0709991,28.2047756 19.9496298,28.7267669 C19.8282605,29.2487581 20.0142199,29.7943483 20.4291213,30.1335565 L24.0642678,33.7687029 L20.4291213,37.4038494 C19.9720914,37.9628639 20.0128584,38.777205 20.5234334,39.28778 C21.0340084,39.798355 21.8483494,39.839122 22.407364,39.3820921 L26.0425105,35.7469456 L29.6776569,39.3820921 C30.2366715,39.839122 31.0510125,39.798355 31.5615875,39.28778 C32.0721625,38.777205 32.1129295,37.9628639 31.6558996,37.4038494 L28.0207531,33.7687029 L31.6558996,30.1335565 C32.1983272,29.5856912 32.1983272,28.7031791 31.6558996,28.1553138 Z" id="Shape"></path>
                    <path d="M31.7643515,8.54359833 L26.1228452,3.64117155 C25.7557856,3.25015794 25.1982378,3.10204384 24.6855178,3.25934154 C24.1727977,3.41663925 23.794237,3.85194267 23.709609,4.38152979 C23.6249811,4.91111691 23.8490307,5.44271738 24.2871967,5.75196653 L27.2776569,8.35280335 C18.4408368,9.50761506 13.2190795,14.1228452 10.3149791,18.0210879 C8.42053645,20.5673963 6.99257751,23.429434 6.09740586,26.4743096 C2.70713456,26.8732427 0.162287763,29.7628306 0.194961936,33.1763361 C0.227636109,36.5898415 2.82732998,39.4301858 6.22461658,39.7641482 C9.62190317,40.0981106 12.7249163,37.8183578 13.4216554,34.4765556 C14.1183945,31.1347534 12.184932,27.8049357 8.93723849,26.7534728 C9.76189103,24.1808114 11.0086934,21.7632229 12.6266109,19.5996653 C16.2637657,14.7675314 21.3168201,11.923682 27.6753138,11.1143096 L24.8876987,14.3276987 C24.4716964,14.9171201 24.5693701,15.7257609 25.1137503,16.1991801 C25.6581305,16.6725992 26.4725017,16.6571163 26.9984937,16.1633473 L31.9009205,10.521841 C32.4028577,9.93749447 32.3410629,9.05803785 31.7623431,8.54962343 L31.7643515,8.54359833 Z M10.7708787,33.1079498 C10.7708787,35.2542346 9.03097103,36.9941423 6.88468619,36.9941423 C4.73840136,36.9941423 2.99849372,35.2542346 2.99849372,33.1079498 C2.99849372,30.961665 4.73840136,29.2217573 6.88468619,29.2217573 C9.03005329,29.2239713 10.7686647,30.9625827 10.7708787,33.1079498 Z" id="Shape"></path>
                </g>
            </g>
        </g>
    </g>
</svg>