<svg xmlns="http://www.w3.org/2000/svg" width="128" height="128" viewBox="0 0 128 128">
    <g fill="none" fill-rule="evenodd">
        <rect width="128" height="128" fill-opacity=".1" rx="10"/>
        <g fill="#FD2D87" fill-rule="nonzero">
            <path d="M84.21 42.389H81.65a17.48 17.48 0 0 0-1.015-2.531l1.852-1.851c.687-.688 2.778-2.777.163-5.394L79.936 29.9c-.318-.318-1.3-1.27-2.636-1.27-1.256.014-2.19.84-2.758 1.434l-1.72 1.721a20.598 20.598 0 0 0-3.259-1.405v-2.474c0-.966 0-3.906-3.689-3.906h-3.851c-2.482 0-3.69 1.277-3.69 3.906v2.341c-1.137.36-2.235.832-3.277 1.412l-1.7-1.703c-.64-.64-1.522-1.383-2.693-1.432-1.226-.045-2.134.702-2.704 1.269l-2.713 2.712c-2.615 2.616-.524 4.707.164 5.394l1.87 1.866c-.4.814-.742 1.654-1.024 2.516H43.69c-2.482 0-3.689 1.277-3.689 3.906v3.417c0 2.628 1.206 3.905 3.689 3.905h2.576c.364 1.18.85 2.318 1.451 3.396l-1.873 1.909c-1.844 1.844-1.898 3.659-.163 5.394l2.712 2.712c2.341 2.342 4.202 1.03 5.393-.163l2.069-2.068a17.57 17.57 0 0 0 2.531 1.016v2.341c0 2.629 1.206 3.906 3.69 3.906h3.85c2.483 0 3.69-1.278 3.689-3.907v-2.341a17.575 17.575 0 0 0 2.53-1.016l2.123 2.122c1.843 1.844 3.658 1.898 5.394.163l2.72-2.712c.56-.56 1.303-1.442 1.287-2.633-.013-1.238-.85-2.182-1.454-2.76l-1.975-1.972a17.586 17.586 0 0 0 1.412-3.278h2.558c2.482 0 3.69-1.277 3.69-3.905v-3.419c0-.966 0-3.905-3.69-3.905h.001zm.435 7.324c.003.21-.01.42-.04.627-.131.016-.263.023-.395.021h-3.798c-.755 0-1.411.52-1.584 1.255a14.503 14.503 0 0 1-2 4.634 1.627 1.627 0 0 0 .21 2.043l2.9 2.9c.152.14.291.293.416.457a3.17 3.17 0 0 1-.278.309l-2.712 2.712a2.888 2.888 0 0 1-.297.265 3.543 3.543 0 0 1-.493-.428l-2.983-2.983a1.626 1.626 0 0 0-1.99-.244 14.222 14.222 0 0 1-3.993 1.604c-.73.176-1.246.83-1.245 1.581v3.58c.003.211-.01.422-.04.63a3.13 3.13 0 0 1-.395.021h-3.852a3.246 3.246 0 0 1-.392-.02 3.85 3.85 0 0 1-.042-.63v-3.58c0-.752-.515-1.406-1.246-1.582a14.214 14.214 0 0 1-3.992-1.604 1.626 1.626 0 0 0-1.99.244l-2.927 2.927a4.32 4.32 0 0 1-.482.438 3.526 3.526 0 0 1-.307-.267l-2.712-2.717a2.874 2.874 0 0 1-.26-.297c.132-.182.279-.35.44-.505l2.766-2.82a1.627 1.627 0 0 0 .19-2.033 14.517 14.517 0 0 1-1.961-4.466 1.627 1.627 0 0 0-1.621-1.53h-3.852a3.216 3.216 0 0 1-.392-.02 3.796 3.796 0 0 1-.043-.631v-3.417c-.003-.212.01-.423.04-.633.131-.015.263-.022.395-.02h3.798c.751 0 1.405-.516 1.581-1.246a16.01 16.01 0 0 1 1.629-4.036 1.627 1.627 0 0 0-.27-1.946l-2.712-2.71a3.762 3.762 0 0 1-.429-.492c.082-.105.171-.206.266-.3l2.712-2.712a2.92 2.92 0 0 1 .297-.264c.178.127.343.27.494.428l2.604 2.604a1.628 1.628 0 0 0 2.042.21 14.494 14.494 0 0 1 4.634-2 1.628 1.628 0 0 0 1.255-1.578v-3.586c-.003-.211.01-.422.04-.63.131-.016.263-.023.395-.021h3.85a3.24 3.24 0 0 1 .395.02c.029.21.041.42.037.63v3.69c0 .738.497 1.384 1.21 1.573a17.336 17.336 0 0 1 4.713 2.034 1.627 1.627 0 0 0 2.009-.235l2.63-2.629c.138-.15.29-.288.455-.409.11.082.213.173.309.272l2.713 2.713c.095.093.184.194.265.3-.128.176-.271.34-.428.491l-2.713 2.713c-.529.528-.63 1.349-.244 1.99a14.245 14.245 0 0 1 1.602 3.993c.177.73.83 1.246 1.582 1.246h3.797c.132-.001.264.006.395.022.03.209.042.42.038.63l.006 3.414z"/>
            <path d="M64.03 39.786a8.195 8.195 0 1 0 0 16.39 8.195 8.195 0 0 0 0-16.39zm0 13.128a4.936 4.936 0 1 1 .003-9.877 4.936 4.936 0 0 1-.003 9.879v-.002z"/>
        </g>
    </g>
</svg>
