<svg xmlns="http://www.w3.org/2000/svg" width="128" height="128" viewBox="0 0 128 128">
    <g fill="none" fill-rule="evenodd">
        <rect width="128" height="128" fill-opacity=".1" rx="10"/>
        <g fill="#FD2D87" fill-rule="nonzero">
            <path d="M50.564 43.661h-6.332c-.838 0-1.516.679-1.516 1.516V61.04c0 .837.678 1.516 1.516 1.516h6.332c.837 0 1.516-.679 1.516-1.516V45.177c0-.837-.679-1.516-1.516-1.516zm-1.511 15.863h-3.306V46.693h3.306v12.831zM62.482 35.267h-6.33c-.838 0-1.516.679-1.516 1.516V61.04c0 .837.678 1.516 1.516 1.516h6.33c.837 0 1.516-.679 1.516-1.516V36.783c0-.837-.679-1.516-1.516-1.516zm-1.516 24.257h-3.299V38.3h3.3v21.225zM74.4 44.914h-6.33c-.838 0-1.516.678-1.516 1.515V61.04c0 .837.678 1.516 1.515 1.516H74.4c.837 0 1.516-.679 1.516-1.516V46.43a1.518 1.518 0 0 0-1.516-1.516zm-1.516 14.61h-3.299V47.945h3.3v11.58zM86.316 35.825h-6.329a1.518 1.518 0 0 0-1.515 1.516V61.04c0 .837.678 1.516 1.515 1.516h6.329c.837 0 1.516-.679 1.516-1.516V37.343a1.516 1.516 0 0 0-1.516-1.518zm-1.516 23.7h-3.297V38.858h3.3L84.8 59.524z"/>
            <path d="M70.343 38.562a1.516 1.516 0 0 0 1.838-.042l11.328-9.04-.05 1.49a1.516 1.516 0 0 0 1.474 1.567h.052c.82-.001 1.491-.654 1.514-1.474l.179-5.299a1.516 1.516 0 0 0-1.566-1.566l-5.3.179a1.516 1.516 0 0 0 .104 3.03l1.391-.047-10.105 8.063-11.488-8.351a1.518 1.518 0 0 0-1.703-.053L40.914 37.884a1.516 1.516 0 1 0 1.625 2.558l16.21-10.299 11.594 8.42z"/>
        </g>
    </g>
</svg>
