<svg xmlns="http://www.w3.org/2000/svg" xmlns:xlink="http://www.w3.org/1999/xlink" width="40" height="28" viewBox="0 0 40 28">
    <defs>
        <path id="a" d="M0 0h39.955v27.478H0z"/>
    </defs>
    <g fill="none" fill-rule="evenodd" opacity=".88">
        <path fill="#fe2d88" d="M12.326 2.764h12.33a.586.586 0 1 0 0-1.172h-12.33a.586.586 0 1 0 0 1.172zM1.299 8.5h12.33a.587.587 0 0 0 0-1.173H1.298a.587.587 0 1 0 0 1.173z"/>
        <g>
            <mask id="b" fill="#fff">
                <use xlink:href="#a"/>
            </mask>
            <path fill="#fe2d88" d="M4.609 14.536c0 .324.262.587.586.587h12.33a.587.587 0 0 0 0-1.174H5.195a.586.586 0 0 0-.586.587zM11.665 21.354H.587a.586.586 0 1 0 0 1.173h11.078a.586.586 0 1 0 0-1.173zM31.599 6.442a3.204 3.204 0 1 0 0-6.407 3.204 3.204 0 0 0 0 6.407z" mask="url(#b)"/>
            <path fill="#fe2d88" d="M36.869 5.52c-1.84 2.577-4.303 2.876-6.955 1.302-.18-.107-.98-.548-1.158-.654-4.265-2.532-8.525-1.539-11.381 2.462-1.214 1.701 1.593 3.314 2.794 1.633 1.476-2.067 3.353-2.665 5.405-2.011-1.05 1.825-1.97 3.638-3.266 6.214-1.297 2.576-4.16 4.634-6.912 3.024-1.986-1.16-3.776 1.692-1.796 2.849 3.756 2.195 8.16.847 10.409-2.007.078.042.16.08.25.111 1.837.64 4.245 2.344 4.979 2.948.733.604 1.993 3.68 2.742 5.225.908 1.876 3.84.51 2.928-1.374-.848-1.753-2.272-5.253-3.382-6.138-.891-.71-2.62-2.032-4.088-2.782a128.254 128.254 0 0 1 3.114-5.693c3.467 1.063 6.763-.189 9.11-3.477 1.215-1.701-1.592-3.314-2.793-1.632z" mask="url(#b)"/>
        </g>
    </g>
</svg>
