<svg xmlns="http://www.w3.org/2000/svg" xmlns:xlink="http://www.w3.org/1999/xlink" width="36" height="32" viewBox="0 0 36 32">
    <defs>
        <path id="a" d="M.005.08h35.96v31.53H.005z"/>
    </defs>
    <g fill="none" fill-rule="evenodd">
        <mask id="b" fill="#fff">
            <use xlink:href="#a"/>
        </mask>
        <path fill="#fe2d88" d="M23.484 6.08a3.22 3.22 0 0 0 4.41-1.145 3.22 3.22 0 1 0-5.553-3.266 3.221 3.221 0 0 0 1.143 4.411zM28.75 17.178c-.177 0-.352.015-.525.027l-1.056-5.237.344-.129a1.508 1.508 0 1 0-1.055-2.825l-3.79 1.417-.17-1.38c.46-.964.405-2.178-.349-3.033-1.552-1.762-3.446-.915-4.037-.437l-7.817 6.33.002.002a2.094 2.094 0 0 0-.575.793c-.16.394-.19.81-.115 1.198a1.197 1.197 0 0 0 .086 2.394l-.497 1.163a7.18 7.18 0 0 0-1.98-.283C3.239 17.178 0 20.415 0 24.394s3.238 7.216 7.217 7.216c3.978 0 7.215-3.237 7.215-7.216 0-2.65-1.44-4.964-3.574-6.22l.802-1.875h1.3l4.408 1.79-2.355 3.859a2.112 2.112 0 0 0 3.605 2.2l2.146-3.518 1.395.842a7.16 7.16 0 0 0-.625 2.922c0 3.979 3.237 7.216 7.215 7.216 3.98 0 7.216-3.237 7.216-7.216s-3.237-7.216-7.216-7.216zM7.216 29.8a5.413 5.413 0 0 1-5.407-5.406 5.412 5.412 0 0 1 5.407-5.406c.434 0 .851.066 1.257.163l-1.498 3.503a1.76 1.76 0 0 0 .24 3.505c.641 0 1.197-.347 1.506-.86h3.808c-.433 2.55-2.643 4.5-5.313 4.5zm5.313-6.311H8.722a1.694 1.694 0 0 0-.081-.127l1.497-3.503a5.395 5.395 0 0 1 2.392 3.63zm9.176-4.404l.56-.919a2.111 2.111 0 0 0-1.008-3.056l-3.856-1.565 2.373-1.922.132 1.075a1.506 1.506 0 0 0 2.024 1.228l3.522-1.316.996 4.95a7.231 7.231 0 0 0-3.353 2.364l-1.39-.839zm5.75 3.471l-2.78-1.678a5.4 5.4 0 0 1 2.136-1.516l.644 3.194zm1.293 7.244a5.412 5.412 0 0 1-5.405-5.406c0-.698.143-1.36.385-1.974l3.258 1.967-.001.007a1.765 1.765 0 0 0 3.528 0 1.76 1.76 0 0 0-1.175-1.656l-.752-3.733c.055-.002.107-.017.162-.017a5.411 5.411 0 0 1 5.406 5.406 5.412 5.412 0 0 1-5.406 5.406z" mask="url(#b)"/>
    </g>
</svg>
