<?xml version="1.0" encoding="UTF-8"?>
<svg width="33px" height="24px" viewBox="0 0 33 24" version="1.1" xmlns="http://www.w3.org/2000/svg" xmlns:xlink="http://www.w3.org/1999/xlink">
    <!-- Generator: sketchtool 49 (51002) - http://www.bohemiancoding.com/sketch -->
    <title>B1830C85-FF51-439B-8F44-616A4028A8D6</title>
    <desc>Created with sketchtool.</desc>
    <g id="Экраны" stroke="none" stroke-width="1" fill="none" fill-rule="evenodd">
        <g id="Trainging-Plan" transform="translate(-275.000000, -21.000000)" fill="#FFFFFF" fill-rule="nonzero">
            <g id="toolbar">
                <g id="Img_toolbar_bike" transform="translate(275.000000, 21.000000)">
                    <path d="M21.6847059,4.06588235 C22.6714034,4.06588235 23.5609444,3.57057214 23.9385372,2.81091408 C24.31613,2.05125603 24.1074142,1.17685179 23.4097137,0.595434685 C22.7120131,0.0140175823 21.6627281,-0.159912236 20.7511384,0.154748433 C19.8395487,0.469409101 19.2451765,1.21069322 19.2451765,2.03294118 C19.2406262,2.57326422 19.4961859,3.09255684 19.9546765,3.47463234 C20.4131671,3.85670784 21.0363182,4.06967423 21.6847059,4.06588235 Z M25.7505882,12.1976471 C22.0080469,12.1976471 18.9741176,14.7259214 18.9741176,17.8447059 C18.9741176,20.9634904 22.0080469,23.4917647 25.7505882,23.4917647 C29.4931296,23.4917647 32.5270588,20.9634904 32.5270588,17.8447059 C32.5270588,14.7259214 29.4931296,12.1976471 25.7505882,12.1976471 Z M25.7505882,21.7976471 C23.1308093,21.7976471 21.0070588,20.027855 21.0070588,17.8447059 C21.0070588,15.6615568 23.1308093,13.8917647 25.7505882,13.8917647 C28.3703672,13.8917647 30.4941176,15.6615568 30.4941176,17.8447059 C30.4576852,20.015155 28.3551271,21.7672867 25.7505882,21.7976471 Z M20.0583529,9.93882353 L25.7505882,9.93882353 L25.7505882,7.90588235 L21.4136471,7.90588235 L18.8385882,4.22117647 C18.4521973,3.72054566 17.8156343,3.39169115 17.1057154,3.32595792 C16.3957965,3.26022469 15.6881343,3.4646139 15.1792941,3.88235294 L10.0969412,8.11764706 C9.64228586,8.48755762 9.39619383,9.00024934 9.41929412,9.52941176 C9.40841629,10.211646 9.81759589,10.8509891 10.5035294,11.2235294 L15.1115294,13.4823529 L15.1115294,19.1294118 L17.5510588,19.1294118 L17.5510588,11.7882353 L14.5694118,9.86823529 L17.6865882,7.27058824 L20.0583529,9.93882353 Z M6.77647059,12.1976471 C3.03392922,12.1976471 0,14.7259214 0,17.8447059 C0,20.9634904 3.03392922,23.4917647 6.77647059,23.4917647 C10.519012,23.4917647 13.5529412,20.9634904 13.5529412,17.8447059 C13.5529412,14.7259214 10.519012,12.1976471 6.77647059,12.1976471 Z M6.77647059,21.7976471 C4.15669163,21.7976471 2.03294118,20.027855 2.03294118,17.8447059 C2.03294118,15.6615568 4.15669163,13.8917647 6.77647059,13.8917647 C9.39624954,13.8917647 11.52,15.6615568 11.52,17.8447059 C11.4835676,20.015155 9.38100948,21.7672867 6.77647059,21.7976471 Z" id="Shape"></path>
                </g>
            </g>
        </g>
    </g>
</svg>