<?xml version="1.0" encoding="UTF-8"?>
<svg width="24px" height="27px" viewBox="0 0 24 27" version="1.1" xmlns="http://www.w3.org/2000/svg" xmlns:xlink="http://www.w3.org/1999/xlink">
    <!-- Generator: sketchtool 49 (51002) - http://www.bohemiancoding.com/sketch -->
    <title>9F118B9C-E598-455E-8C7E-57EC5C94EBE9</title>
    <desc>Created with sketchtool.</desc>
    <defs></defs>
    <g id="Экраны" stroke="none" stroke-width="1" fill="none" fill-rule="evenodd">
        <g id="Trainging-Plan" transform="translate(-225.000000, -20.000000)" fill="#FFFFFF" fill-rule="nonzero">
            <g id="toolbar">
                <g id="img_toolbar_bell" transform="translate(225.000000, 20.000000)">
                    <path d="M23.4083721,20.7106977 C19.627907,18.3776744 19.8325581,10.7888372 19.8362791,10.6790698 C19.8306165,7.21736702 17.5661295,4.16483857 14.2548837,3.15534884 L14.2548837,2.47627907 C14.2548837,1.2109048 13.2290952,0.185116279 11.9637209,0.185116279 C10.6983467,0.185116279 9.67255814,1.2109048 9.67255814,2.47627907 L9.67255814,3.16093023 C6.3508139,4.17932561 4.08509453,7.24937537 4.09116279,10.7237209 C4.16372093,12.8446512 3.66511628,18.7739535 0.517209302,20.7162791 C0.104280885,20.984763 -0.0838808741,21.4921493 0.0541449382,21.964952 C0.192170751,22.4377547 0.62375876,22.7642168 1.11627907,22.7683721 L7.77116279,22.7683721 C8.21840438,24.7294796 9.96249435,26.1205997 11.9739535,26.1205997 C13.9854126,26.1205997 15.7295026,24.7294796 16.1767442,22.7683721 L22.8316279,22.7683721 C23.3249196,22.7615119 23.7552086,22.4316544 23.8899457,21.9570707 C24.0246829,21.482487 23.8319112,20.9757389 23.415814,20.7106977 L23.4083721,20.7106977 Z M10.9767442,20.5451163 L3.84186047,20.5451163 C6.49674419,16.7981395 6.33302326,10.9469767 6.32372093,10.6846512 C6.31293216,7.56719644 8.83138249,5.03125402 11.9488372,5.0204652 C15.0662919,5.00967638 17.6022344,7.52812667 17.6130233,10.6455814 C17.6018605,10.9451163 17.44,16.8018605 20.0948837,20.5488372 L10.9767442,20.5451163 Z" id="Shape"></path>
                </g>
            </g>
        </g>
    </g>
</svg>