<svg xmlns="http://www.w3.org/2000/svg" width="189" height="189" viewBox="0 0 189 189">
    <g fill="none" fill-rule="evenodd" stroke="#434343" stroke-linecap="round">
        <path stroke-width="2.835" d="M94.23 1.418v11.906M47.824 13.852l5.953 10.311M13.852 47.824l10.31 5.953M1.417 94.23h11.906M13.852 140.637l10.31-5.953M47.824 174.608l5.953-10.311M94.23 187.043v-11.906M140.636 174.608l-5.953-10.311M174.608 140.637l-10.311-5.953M187.042 94.23h-11.906M174.608 47.824l-10.311 5.953M140.636 13.852l-5.953 10.311"/>
        <path stroke-width="1.417" d="M94.23 3.48v7.78M84.744 3.978l.813 7.738M75.362 5.463l1.618 7.61M66.187 7.922l2.404 7.4M57.319 11.326l3.165 7.108M48.855 15.638l3.89 6.738M40.888 20.812l4.573 6.294M33.506 26.79l5.207 5.782M26.79 33.507l5.782 5.207M20.812 40.889l6.294 4.573M15.638 48.855l6.738 3.891M11.326 57.319l7.108 3.165M7.922 66.187l7.4 2.404M5.463 75.362l7.61 1.618M3.977 84.744l7.738.813M3.48 94.23h7.78M3.977 103.716l7.738-.813M5.463 113.098l7.61-1.617M7.922 122.274l7.4-2.404M11.326 131.142l7.108-3.165M15.638 139.606l6.738-3.891M20.812 147.571l6.294-4.573M26.79 154.953l5.782-5.206M33.506 161.67l5.207-5.782M40.888 167.649l4.573-6.295M48.855 172.821l3.89-6.738M57.319 177.134l3.165-7.107M66.187 180.538l2.404-7.399M75.362 182.997l1.618-7.61M84.744 184.483l.813-7.738M94.23 184.98v-7.78M103.716 184.483l-.813-7.738M113.098 182.997l-1.618-7.61M122.273 180.538l-2.404-7.399M131.14 177.134l-3.163-7.107M139.605 172.821l-3.891-6.738M147.571 167.649L143 161.354M154.953 161.67l-5.206-5.782M161.67 154.953l-5.782-5.206M167.648 147.571l-6.294-4.573M172.821 139.606l-6.738-3.891M177.134 131.142l-7.108-3.165M180.538 122.274l-7.4-2.404M182.996 113.098l-7.61-1.617M184.483 103.716l-7.738-.813M184.98 94.23h-7.78M184.483 84.744l-7.738.813M182.996 75.362l-7.61 1.618M180.538 66.187l-7.4 2.404M177.134 57.319l-7.108 3.165M172.821 48.855l-6.738 3.891M167.648 40.889l-6.294 4.573M161.67 33.507l-5.782 5.207M154.953 26.79l-5.206 5.782M147.571 20.812L143 27.106M139.605 15.638l-3.891 6.738M131.14 11.326l-3.163 7.108M122.273 7.922l-2.404 7.4M113.098 5.463l-1.618 7.61M103.716 3.978l-.813 7.738"/>
    </g>
</svg>
