<svg xmlns="http://www.w3.org/2000/svg" xmlns:xlink="http://www.w3.org/1999/xlink" width="40" height="26" viewBox="0 0 40 26">
    <defs>
        <path id="a" d="M.006.013H39.96v25.938H.006z"/>
    </defs>
    <g fill="none" fill-rule="evenodd">
        <g>
            <mask id="b" fill="#fff">
                <use xlink:href="#a"/>
            </mask>
            <path fill="#FFF" d="M5.077 5.461l9.247 1.19c.323.819 1.948 4.852 2.255 5.574h-.005c-2.679 1.324-5.358 2.645-8.037 3.97a15.66 15.66 0 0 1 2.819-.255c1.24 0 2.454.148 3.613.441 2.34.595 4.454 1.546 6.496 2.467 1.822.82 3.545 1.597 5.265 2.043.242.063.475.118.709.165-2.038-4.173-7.52-15.42-8.602-17.896-.51-1.167-1.21-1.6-2.204-1.728L5.773.036A2.74 2.74 0 0 0 2.708 2.4a2.741 2.741 0 0 0 2.369 3.061z" mask="url(#b)"/>
            <path fill="#FFF" d="M.708 24.966a1.683 1.683 0 0 0 1.21.302c.45-.06.875-.297 1.159-.692 1.1-1.533 2.802-2.739 4.785-3.401a11.123 11.123 0 0 1 3.494-.569c4.233 0 7.863 2.53 11.684 3.987 2.047.78 4.182 1.358 6.505 1.358.976 0 1.987-.102 3.035-.335 2.467-.544 4.581-1.716 6.11-3.358.365-.395.696-.811.99-1.257a1.698 1.698 0 0 0-2.833-1.873c-.131.2-.276.391-.433.578-1.062 1.265-2.653 2.174-4.564 2.594-1.762.386-3.706.272-5.443-.178-1.825-.476-3.592-1.27-5.468-2.115-1.996-.896-4.055-1.825-6.288-2.394a13.325 13.325 0 0 0-3.3-.403c-1.532 0-3.09.25-4.572.742a13.777 13.777 0 0 0-3.575 1.796 12.186 12.186 0 0 0-2.89 2.845 1.71 1.71 0 0 0 .395 2.373z" mask="url(#b)"/>
        </g>
        <path fill="#FFF" d="M37.446 11.096a5.99 5.99 0 1 1-11.981 0 5.99 5.99 0 0 1 11.98 0z"/>
    </g>
</svg>
